<?xml version="1.0" standalone="no"?>
<!DOCTYPE svg PUBLIC "-//W3C//DTD SVG 20010904//EN"
 "http://www.w3.org/TR/2001/REC-SVG-20010904/DTD/svg10.dtd">
<svg version="1.0" xmlns="http://www.w3.org/2000/svg"
 width="1920.000000pt" height="1080.000000pt" viewBox="0 0 1920.000000 1080.000000"
 preserveAspectRatio="xMidYMid meet">

<g transform="translate(0.000000,1080.000000) scale(0.100000,-0.100000)"
fill="#000000" stroke="none">
<path d="M9137 6544 c-15 -8 -32 -26 -37 -40 -6 -15 -10 -363 -10 -883 0 -838
0 -859 20 -883 10 -14 16 -28 13 -32 -3 -3 -2 -6 4 -6 6 0 9 -9 6 -20 -3 -11
2 -31 11 -45 20 -31 20 -35 -3 -35 -13 0 -43 -41 -105 -146 -47 -81 -86 -152
-86 -159 0 -18 46 -24 215 -26 83 -1 174 -3 203 -3 65 -1 68 -14 5 -19 l-48
-3 51 -2 c42 -2 57 -8 92 -37 37 -33 42 -34 52 -18 9 15 10 13 6 -12 -5 -28
-4 -27 12 7 l17 38 468 0 467 0 0 -64 c0 -36 5 -68 10 -71 6 -4 10 28 10 89
l0 96 228 -1 c136 0 219 -4 207 -9 -17 -7 -15 -9 11 -9 19 -1 39 -10 54 -26
13 -14 29 -25 36 -25 6 0 22 -13 35 -30 14 -17 34 -30 46 -30 12 0 26 -8 31
-17 8 -14 25 -16 106 -14 88 2 102 5 149 33 29 16 56 36 60 44 4 8 12 14 18
14 5 0 23 13 40 29 26 26 28 30 12 34 -10 3 47 5 127 6 280 4 319 6 331 18 16
16 -158 312 -185 313 -13 0 -16 5 -11 18 4 9 11 33 15 52 4 19 16 51 28 70
l22 35 0 846 c0 554 -4 856 -10 876 -6 16 -24 37 -39 46 -27 16 -124 17 -1343
17 -1154 -1 -1316 -3 -1341 -16z m1450 -180 c-3 -3 -12 -4 -19 -1 -8 3 -5 6 6
6 11 1 17 -2 13 -5z m-527 -304 c0 -5 -6 -10 -12 -10 -9 0 -8 -4 2 -11 11 -8
12 -12 3 -16 -7 -2 -13 -20 -13 -39 0 -19 -4 -34 -9 -34 -12 0 -20 81 -9 103
9 18 38 24 38 7z m1050 0 c0 -5 -4 -10 -10 -10 -5 0 -10 5 -10 10 0 6 5 10 10
10 6 0 10 -4 10 -10z m-1462 -7 c-14 -3 -18 -15 -18 -54 0 -27 -4 -49 -10 -49
-5 0 -10 20 -10 45 0 38 -4 47 -22 55 -18 7 -12 9 27 8 28 0 42 -2 33 -5z
m799 -15 l10 -23 7 23 c4 12 14 22 22 22 18 0 18 -10 0 -36 -8 -11 -16 -30
-18 -42 -5 -33 -22 -28 -29 8 -4 18 -12 37 -18 43 -15 15 -14 27 2 27 8 0 18
-10 24 -22z m429 -3 c1 -11 5 -29 9 -39 10 -24 -20 -48 -55 -44 -23 3 -25 8
-28 56 l-3 53 38 -3 c30 -2 38 -7 39 -23z m-1156 -7 c0 -5 -4 -8 -9 -8 -6 0
-11 -15 -13 -32 -4 -47 -22 -41 -26 8 -3 39 -1 42 22 40 15 0 26 -4 26 -8z
m79 -2 c7 -8 11 -27 9 -42 -2 -21 -9 -28 -28 -29 -53 -4 -71 28 -25 45 30 11
34 24 5 15 -11 -3 -20 -2 -20 3 0 25 41 30 59 8z m99 -33 c4 -50 -15 -59 -20
-10 -2 17 -7 32 -13 32 -5 0 -11 -15 -13 -32 -5 -49 -22 -40 -22 11 0 44 0 44
33 43 30 -2 32 -4 35 -44z m76 41 c24 -9 19 -26 -5 -19 -15 5 -19 4 -15 -4 4
-6 14 -11 22 -11 22 0 17 -38 -7 -45 -14 -5 -27 -1 -38 10 -15 16 -14 17 12
11 19 -5 26 -3 22 4 -3 5 -12 10 -20 10 -21 0 -28 19 -15 35 14 17 21 18 44 9z
m160 -10 c9 -8 16 -22 16 -29 0 -17 -27 -45 -44 -45 -19 0 -36 22 -36 45 0 41
36 58 64 29z m86 6 c0 -4 -7 -10 -15 -14 -8 -3 -15 -16 -15 -30 0 -14 -4 -28
-10 -31 -6 -4 -10 11 -10 38 0 41 2 45 25 45 14 0 25 -4 25 -8z m128 -37 c4
-50 -15 -59 -20 -10 -2 17 -7 32 -13 32 -5 0 -11 -15 -13 -32 -2 -18 -7 -33
-12 -33 -5 0 -10 15 -12 33 -3 36 -23 35 -23 -2 -1 -14 -6 -26 -13 -29 -8 -2
-12 10 -12 41 l0 44 58 -1 57 -1 3 -42z m220 35 c30 -30 2 -86 -37 -73 -30 9
-39 54 -16 72 23 16 37 17 53 1z m54 -20 c4 -43 22 -42 26 0 5 46 27 35 27
-13 0 -34 -3 -39 -25 -40 -35 -3 -50 12 -50 51 0 43 18 44 22 2z m128 22 c0
-4 -7 -10 -15 -14 -9 -3 -15 -18 -15 -36 0 -16 -4 -30 -10 -30 -5 0 -10 20
-10 44 0 40 2 44 25 44 14 0 25 -4 25 -8z m182 -22 c2 -18 8 -33 13 -33 6 0
11 15 13 33 5 48 24 39 20 -10 -3 -36 -6 -42 -28 -43 -33 -3 -50 12 -50 45 0
49 27 56 32 8z m122 26 c27 -10 18 -25 -11 -19 l-28 5 28 -12 c30 -13 36 -42
11 -52 -21 -8 -54 2 -54 15 0 6 9 7 20 4 11 -4 20 -2 20 4 0 6 -7 11 -15 11
-21 0 -31 30 -14 41 17 10 23 11 43 3z m56 -39 c0 -25 -4 -45 -10 -45 -5 0
-10 20 -10 45 0 25 5 45 10 45 6 0 10 -20 10 -45z m93 36 c10 -1 9 -69 -2 -76
-5 -3 -11 9 -13 27 -4 43 -26 48 -30 6 -4 -47 -22 -41 -26 8 -3 42 -3 42 30
39 18 -2 36 -3 41 -4z m91 -7 c24 -23 19 -34 -15 -34 -18 0 -28 -4 -24 -10 4
-6 15 -8 26 -5 10 4 19 2 19 -4 0 -16 -40 -24 -55 -11 -28 23 -12 80 21 80 7
0 20 -7 28 -16z m80 10 c24 -9 19 -26 -5 -19 -15 5 -19 4 -15 -4 4 -6 14 -11
22 -11 22 0 17 -38 -7 -45 -14 -5 -27 -1 -38 10 -15 16 -14 17 12 11 19 -5 26
-3 22 4 -3 5 -12 10 -20 10 -21 0 -28 19 -15 35 14 17 21 18 44 9z m90 0 c24
-9 19 -26 -5 -19 -15 5 -19 4 -15 -4 4 -6 14 -11 22 -11 19 0 18 -36 -2 -44
-20 -8 -54 2 -54 15 0 5 11 7 25 3 14 -3 25 -3 25 0 0 4 -11 11 -25 16 -26 10
-34 35 -12 43 18 8 23 8 41 1z m-1669 -184 c-3 -5 -10 -10 -16 -10 -5 0 -9 5
-9 10 0 6 7 10 16 10 8 0 12 -4 9 -10z m105 -4 c0 -9 12 -16 28 -18 23 -3 27
-8 30 -40 2 -29 0 -38 -12 -38 -11 0 -16 9 -16 30 0 17 -4 30 -10 30 -5 0 -10
-13 -10 -30 0 -20 -5 -30 -15 -30 -12 0 -15 13 -15 55 0 30 5 55 10 55 6 0 10
-6 10 -14z m196 0 c10 -8 16 -18 12 -22 -4 -4 -14 -1 -23 6 -23 19 -47 5 -43
-27 3 -25 7 -28 36 -26 27 1 31 -1 21 -13 -14 -17 -51 -18 -67 -2 -17 17 -15
64 4 82 19 20 35 20 60 2z m284 10 c0 -3 -4 -8 -10 -11 -5 -3 -10 -1 -10 4 0
6 5 11 10 11 6 0 10 -2 10 -4z m360 -6 c0 -5 -11 -10 -25 -10 -16 0 -25 -6
-25 -15 0 -9 10 -15 26 -15 14 0 23 -4 19 -10 -3 -5 -15 -10 -26 -10 -28 0
-19 -23 12 -31 20 -6 18 -7 -13 -8 l-38 -1 0 55 0 55 35 0 c19 0 35 -4 35 -10z
m100 -43 l0 -54 -35 -1 c-29 -1 -36 3 -41 23 -8 31 13 58 38 52 13 -4 18 0 18
14 0 10 5 19 10 19 6 0 10 -24 10 -53z m274 37 c3 -9 6 -24 6 -35 0 -10 5 -19
10 -19 6 0 10 7 10 16 0 8 5 25 12 37 11 21 12 20 28 -18 l18 -40 7 38 c4 20
11 37 16 37 12 0 11 -12 -2 -66 -13 -52 -32 -57 -46 -11 l-10 32 -13 -33 c-7
-18 -17 -31 -23 -29 -9 3 -36 77 -37 100 0 13 18 7 24 -9z m246 -9 c0 -8 7
-11 19 -8 26 7 46 -29 31 -56 -7 -13 -20 -19 -40 -19 -30 1 -30 2 -30 55 0 34
4 52 10 48 6 -3 10 -12 10 -20z m-1509 3 c6 -65 3 -88 -11 -86 -15 3 -32 62
-23 85 6 17 33 17 34 1z m410 0 c5 -57 2 -88 -7 -88 -7 0 -14 17 -16 38 -5 41
-1 62 13 62 5 0 10 -6 10 -12z m62 -1 c3 -7 3 -26 0 -41 -4 -18 -1 -31 8 -37
11 -7 9 -9 -7 -9 -18 0 -23 7 -26 38 -5 39 -1 62 12 62 4 0 10 -6 13 -13z
m-658 -29 l8 -23 4 23 c2 12 10 22 18 22 7 0 16 -10 20 -22 l8 -23 4 23 c2 12
10 22 18 22 10 0 11 -8 3 -40 -11 -44 -33 -53 -44 -18 l-7 23 -8 -23 c-5 -12
-13 -22 -19 -22 -11 0 -30 41 -30 66 0 22 17 17 25 -8z m135 -18 c0 -29 -4
-40 -15 -40 -11 0 -15 11 -15 40 0 29 4 40 15 40 11 0 15 -11 15 -40z m362 0
c4 -36 22 -31 26 8 5 45 22 40 22 -6 0 -37 -1 -39 -34 -40 -28 -1 -35 3 -40
23 -7 27 3 60 14 48 5 -4 10 -19 12 -33z m218 0 c0 -22 -4 -40 -10 -40 -5 0
-10 18 -10 40 0 22 5 40 10 40 6 0 10 -18 10 -40z m88 -2 c2 -22 -1 -38 -7
-38 -6 0 -11 14 -11 30 0 20 -5 30 -15 30 -10 0 -15 -10 -15 -30 0 -16 -4 -30
-10 -30 -5 0 -10 18 -10 39 0 38 1 39 33 38 29 -2 32 -5 35 -39z m100 -12 c-3
-50 -4 -51 -35 -54 -19 -2 -33 1 -33 8 0 6 10 8 24 4 22 -5 24 -3 24 35 1 29
-3 41 -14 41 -17 0 -19 -31 -2 -48 9 -9 8 -12 -5 -12 -9 0 -21 9 -27 20 -16
31 3 59 40 58 31 -1 31 -1 28 -52z m370 0 c-3 -50 -4 -51 -35 -54 -19 -2 -33
1 -33 7 0 6 10 10 21 8 12 -1 24 4 26 11 3 8 -1 10 -11 6 -20 -8 -46 13 -46
35 0 25 19 40 52 39 28 -1 29 -2 26 -52z m90 27 c3 -19 -1 -23 -23 -23 -16 0
-24 -4 -20 -10 4 -6 16 -8 28 -4 17 5 19 3 11 -6 -7 -6 -22 -10 -35 -8 -28 4
-38 40 -18 64 18 22 53 13 57 -13z m280 15 c22 -22 13 -38 -19 -38 -18 0 -28
-4 -24 -10 3 -6 18 -7 32 -4 18 5 24 3 19 -5 -9 -15 -49 -14 -64 1 -24 24 -7
68 28 68 9 0 21 -5 28 -12z m-668 -28 c0 -5 -9 -10 -20 -10 -11 0 -20 5 -20
10 0 6 9 10 20 10 11 0 20 -4 20 -10z m-45 -140 c3 -5 1 -10 -4 -10 -6 0 -11
5 -11 10 0 6 2 10 4 10 3 0 8 -4 11 -10z m-344 -17 c12 -15 12 -16 -6 -9 -31
12 -37 12 -42 0 -2 -7 10 -17 27 -22 35 -13 39 -36 10 -52 -25 -13 -60 -4 -60
16 0 12 4 12 20 2 15 -10 22 -10 32 0 9 9 5 14 -20 23 -30 10 -42 36 -25 52
12 13 51 7 64 -10z m136 -65 c-2 -18 -4 -6 -4 27 0 33 2 48 4 33 2 -15 2 -42
0 -60z m159 57 c9 -8 11 -15 5 -15 -15 0 -14 -47 2 -53 6 -2 9 -7 6 -11 -14
-15 -37 7 -41 39 -6 54 2 66 28 40z m-198 -36 c4 -31 -20 -53 -48 -44 -14 4
-20 15 -20 34 0 35 8 43 40 39 19 -2 26 -10 28 -29z m92 1 c0 -20 5 -30 15
-30 10 0 15 10 15 30 0 17 5 30 10 30 6 0 10 -17 10 -38 0 -39 0 -40 -62 -33
-12 1 -9 71 2 71 6 0 10 -13 10 -30z m160 -10 c0 -22 -4 -40 -10 -40 -5 0 -10
18 -10 40 0 22 5 40 10 40 6 0 10 -18 10 -40z m90 25 c27 -32 -23 -82 -55 -55
-15 13 -20 51 -8 63 12 12 50 7 63 -8z m98 -30 c4 -44 -14 -39 -20 5 -4 36
-22 31 -26 -7 -5 -47 -22 -41 -22 8 0 39 1 40 33 37 30 -3 32 -6 35 -43z m88
34 c4 -8 0 -9 -15 -4 -11 3 -21 2 -21 -3 0 -5 9 -12 20 -15 26 -7 26 -34 -1
-42 -14 -5 -27 -1 -38 10 -15 15 -14 16 13 9 21 -5 27 -4 22 5 -4 6 -13 11
-21 11 -17 0 -28 17 -20 30 8 14 52 13 61 -1z m-136 -494 c0 -9 -6 -12 -16 -8
-13 5 -13 7 -2 14 17 11 18 11 18 -6z m-370 -3 c0 -4 -9 -8 -20 -9 -11 -1 -18
2 -15 8 7 11 35 12 35 1z m80 -4 c0 -4 -15 -5 -32 -1 -47 8 -49 14 -5 11 20
-1 37 -6 37 -10z m60 4 c0 -4 -9 -8 -20 -9 -11 -1 -20 2 -20 8 0 5 9 9 20 9
11 0 20 -4 20 -8z m40 0 c0 -5 -7 -9 -15 -9 -8 0 -15 4 -15 9 0 4 7 8 15 8 8
0 15 -4 15 -8z m139 3 c-9 -8 -69 -13 -74 -5 -3 4 14 8 36 8 23 1 40 -1 38 -3z
m-233 -221 c-6 -21 -4 -25 8 -21 9 4 16 2 16 -3 0 -5 7 -7 15 -4 23 9 18 34
-7 34 -17 0 -19 3 -10 12 18 18 46 -13 37 -41 -5 -16 -13 -20 -38 -18 -32 3
-45 22 -33 53 9 24 18 15 12 -12z m602 -121 c-317 -2 -839 -2 -1160 0 -321 1
-61 2 577 2 638 0 900 -1 583 -2z m826 -296 c4 4 4 0 1 -9 -4 -9 -2 -19 4 -23
22 -13 10 -25 -23 -25 l-34 0 11 35 c7 25 14 32 22 25 7 -5 15 -7 19 -3z
m-2759 -27 c3 -5 1 -10 -5 -10 -6 0 -8 -4 -5 -10 4 -6 -7 -10 -24 -10 -33 0
-34 1 -25 24 7 18 49 22 59 6z m15 -61 c0 -5 -5 -9 -11 -9 -5 0 -7 -4 -4 -10
4 -6 -14 -10 -47 -10 -46 0 -54 3 -54 19 0 11 4 17 8 15 4 -3 8 -2 8 3 0 4 22
6 50 5 27 -2 50 -8 50 -13z m2804 -38 c26 -49 26 -50 6 -56 -26 -8 -81 -4 -98
8 -19 14 -45 74 -37 86 3 6 28 11 54 11 47 0 48 -1 75 -49z m-2816 -16 c2 -2
-1 -13 -8 -24 -8 -17 -20 -21 -58 -21 -60 0 -78 11 -63 37 5 11 8 22 6 25 -6
5 118 -12 123 -17z m282 -15 c0 -5 -9 -10 -20 -10 -11 0 -20 5 -20 10 0 6 9
10 20 10 11 0 20 -4 20 -10z m600 -80 c0 -6 -82 -9 -227 -9 -127 1 -210 5
-188 9 64 11 415 11 415 0z m475 0 c4 -7 -73 -10 -224 -10 -147 0 -231 4 -231
10 0 6 81 10 224 10 139 0 227 -4 231 -10z"/>
<path d="M10830 6036 c0 -9 7 -16 16 -16 17 0 14 22 -4 28 -7 2 -12 -3 -12
-12z"/>
<path d="M10830 5984 c0 -9 5 -14 12 -12 18 6 21 28 4 28 -9 0 -16 -7 -16 -16z"/>
<path d="M9760 5980 c0 -5 5 -10 10 -10 6 0 10 5 10 10 0 6 -4 10 -10 10 -5 0
-10 -4 -10 -10z"/>
<path d="M10094 6005 c-3 -8 -3 -19 1 -25 11 -18 25 -11 25 15 0 27 -17 34
-26 10z"/>
<path d="M10530 5995 c0 -17 5 -25 13 -22 6 2 12 12 12 22 0 10 -6 20 -12 23
-8 2 -13 -6 -13 -23z"/>
<path d="M11255 6010 c-3 -5 1 -10 9 -10 9 0 16 5 16 10 0 6 -4 10 -9 10 -6 0
-13 -4 -16 -10z"/>
<path d="M10786 5801 c-9 -14 5 -42 18 -38 15 5 14 39 -1 44 -6 2 -14 0 -17
-6z"/>
<path d="M11362 5788 c2 -13 8 -23 13 -23 6 0 11 10 13 23 2 15 -2 22 -13 22
-11 0 -15 -7 -13 -22z"/>
<path d="M10885 5801 c-8 -15 3 -31 21 -31 9 0 14 7 12 17 -4 20 -24 28 -33
14z"/>
<path d="M10988 5803 c7 -3 16 -2 19 1 4 3 -2 6 -13 5 -11 0 -14 -3 -6 -6z"/>
<path d="M11268 5803 c6 -2 18 -2 25 0 6 3 1 5 -13 5 -14 0 -19 -2 -12 -5z"/>
<path d="M10300 5585 c0 -16 6 -25 15 -25 9 0 15 9 15 25 0 16 -6 25 -15 25
-9 0 -15 -9 -15 -25z"/>
<path d="M10647 5604 c-15 -15 -7 -45 11 -42 9 2 17 12 17 22 0 20 -16 31 -28
20z"/>
<path d="M10639 4247 c5 -5 30 -7 57 -5 l49 3 -57 5 c-31 3 -53 1 -49 -3z"/>
<path d="M11748 4213 c23 -2 61 -2 85 0 23 2 4 4 -43 4 -47 0 -66 -2 -42 -4z"/>
<path d="M9456 3984 c-3 -9 -6 -24 -6 -35 0 -19 12 -19 530 -19 l530 1 0 35
c0 24 -4 34 -12 31 -7 -2 -12 -14 -10 -25 l3 -22 -255 0 -256 0 0 25 0 25
-259 0 c-227 0 -260 -2 -265 -16z m514 -14 c0 -19 -7 -20 -256 -20 -200 0
-255 3 -252 13 6 15 105 23 336 25 166 2 172 1 172 -18z"/>
<path d="M10028 3993 c12 -2 30 -2 40 0 9 3 -1 5 -23 4 -22 0 -30 -2 -17 -4z"/>
<path d="M8720 3832 c32 -16 168 -17 1760 -17 1609 0 1727 1 1755 17 28 16
-57 17 -1593 18 -1080 0 -1621 -3 -1617 -10 3 -5 1 -10 -4 -10 -6 0 -11 4 -11
8 0 5 -73 9 -162 10 -159 0 -162 0 -128 -16z"/>
</g>
</svg>
